# xmcd CD database file
#
# Track frame offsets:
#	150
#	33280
#	71585
#	96720
#
# Disc length: 2132 seconds
#
# Revision: 1
# Processed by: cddbd v1.5.1PL0 Copyright (c) Steve Scherf et al.
# Submitted via: CDex 1.51
#
DISCID=33085204
DTITLE=Herbie Hancock - Empyrean Isles
DYEAR=1964
DGENRE=Jazz
TTITLE0=One Finger Snap
TTITLE1=Oliloqui Valley
TTITLE2=Cantaloupe Island
TTITLE3=The Egg
EXTD=YEAR: 1964
EXTT0=
EXTT1=
EXTT2=
EXTT3=
PLAYORDER=
